<svg xmlns="http://www.w3.org/2000/svg" viewBox="0 0 24 24"><path fill="#ffc72c" d="M12.06 24c6.72-.17 12.11-5.64 11.94-12.06A12 12 0 1 0 12.06 24"/><path fill="#1c1e23" d="m18.78 10.67-.66-5.17c-.16-.93-.75-1.3-1.63-1.68A14.25 14.25 0 0 0 12 3a14.32 14.32 0 0 0-4.5.82c-.86.37-1.45.75-1.63 1.68l-.66 5.17v7.15h1.17v1.25a1 1 0 0 0 1.91 0v-1.25h7.45v1.25a.91.91 0 0 0 .48.8 1 1 0 0 0 1 0 .88.88 0 0 0 .47-.8v-1.25h1.13zM9.21 4.31h5.61a.42.42 0 0 1 .43.41.42.42 0 0 1-.43.42H9.21a.43.43 0 0 1-.43-.42.42.42 0 0 1 .43-.41zm-2.79 6.21L7 6.43A.54.54 0 0 1 7.51 6h9.06a.56.56 0 0 1 .54.44l.54 4.09a.33.33 0 0 1 0 .14.49.49 0 0 1-.16.37.54.54 0 0 1-.38.15H6.94a.56.56 0 0 1-.38-.19.57.57 0 0 1-.14-.38.33.33 0 0 1 0-.1zm.92 5.09a1 1 0 1 1 1-1 1 1 0 0 1-.3.7 1 1 0 0 1-.7.3zm9.36 0a1 1 0 1 1 1-1 1 1 0 0 1-.3.7 1.06 1.06 0 0 1-.72.29z"/></svg>